{
    "asset": {
        "version": "2.0",
        "generator": "Open Asset Import Library (assimp v5.2.0)"
    },
    "extensionsUsed": [
        "KHR_materials_volume",
        "FB_ngon_encoding"
    ],
    "accessors": [
        {
            "bufferView": 0,
            "byteOffset": 0,
            "componentType": 5126,
            "count": 1906,
            "type": "VEC3",
            "max": [
                0.18879981338977815,
                0.500049352645874,
                0.12780435383319856
            ],
            "min": [
                -0.18963241577148438,
                -0.499017596244812,
                -0.12909749150276185
            ]
        },
        {
            "bufferView": 1,
            "byteOffset": 0,
            "componentType": 5126,
            "count": 1906,
            "type": "VEC2",
            "max": [
                0.9995511770248413,
                0.999558687210083
            ],
            "min": [
                0.00044883304508402944,
                0.0004413127899169922
            ]
        },
        {
            "bufferView": 2,
            "byteOffset": 0,
            "componentType": 5125,
            "count": 7452,
            "type": "SCALAR",
            "max": [
                1905
            ],
            "min": [
                0
            ]
        }
    ],
    "buffers": [
        {
            "byteLength": 67928,
            "uri": "sample5.bin"
        }
    ],
    "bufferViews": [
        {
            "buffer": 0,
            "byteOffset": 0,
            "byteLength": 22872,
            "target": 34962
        },
        {
            "buffer": 0,
            "byteOffset": 22872,
            "byteLength": 15248,
            "target": 34962
        },
        {
            "buffer": 0,
            "byteOffset": 38120,
            "byteLength": 29808,
            "target": 34963
        }
    ],
    "images": [
        {
            "uri": "data:image/png;base64,"
        }
    ],
    "materials": [
        {
            "name": "material",
            "pbrMetallicRoughness": {
                "baseColorTexture": {
                    "index": 0
                }
            }
        },
        {
            "name": "material"
        }
    ],
    "meshes": [
        {
            "name": "geometry_0",
            "primitives": [
                {
                    "mode": 4,
                    "material": 0,
                    "indices": 2,
                    "attributes": {
                        "POSITION": 0,
                        "TEXCOORD_0": 1
                    }
                }
            ]
        }
    ],
    "nodes": [
        {
            "name": "world",
            "children": [
                1
            ]
        },
        {
            "name": "geometry_0",
            "mesh": 0
        }
    ],
    "samplers": [
        {}
    ],
    "scenes": [
        {
            "nodes": [
                0
            ]
        }
    ],
    "textures": [
        {
            "source": 0,
            "sampler": 0
        }
    ],
    "scene": 0
}
