{
    "asset": {
        "version": "2.0",
        "generator": "Open Asset Import Library (assimp v5.2.0)"
    },
    "extensionsUsed": [
        "KHR_materials_volume",
        "FB_ngon_encoding"
    ],
    "accessors": [
        {
            "bufferView": 0,
            "byteOffset": 0,
            "componentType": 5126,
            "count": 5486,
            "type": "VEC3",
            "max": [
                0.12306620925664902,
                0.5003732442855835,
                0.2253168672323227
            ],
            "min": [
                -0.12483783811330795,
                -0.5003101229667664,
                -0.2229394018650055
            ]
        },
        {
            "bufferView": 1,
            "byteOffset": 0,
            "componentType": 5126,
            "count": 5486,
            "type": "VEC2",
            "max": [
                0.9995594620704651,
                0.9995798468589783
            ],
            "min": [
                0.0004405286454129964,
                0.0004201531410217285
            ]
        },
        {
            "bufferView": 2,
            "byteOffset": 0,
            "componentType": 5125,
            "count": 23826,
            "type": "SCALAR",
            "max": [
                5485
            ],
            "min": [
                0
            ]
        }
    ],
    "buffers": [
        {
            "byteLength": 205024,
            "uri": "sample8.bin"
        }
    ],
    "bufferViews": [
        {
            "buffer": 0,
            "byteOffset": 0,
            "byteLength": 65832,
            "target": 34962
        },
        {
            "buffer": 0,
            "byteOffset": 65832,
            "byteLength": 43888,
            "target": 34962
        },
        {
            "buffer": 0,
            "byteOffset": 109720,
            "byteLength": 95304,
            "target": 34963
        }
    ],
    "images": [
        {
            "uri": "data:image/png;base64,"
        }
    ],
    "materials": [
        {
            "name": "material",
            "pbrMetallicRoughness": {
                "baseColorTexture": {
                    "index": 0
                }
            }
        },
        {
            "name": "material"
        }
    ],
    "meshes": [
        {
            "name": "geometry_0",
            "primitives": [
                {
                    "mode": 4,
                    "material": 0,
                    "indices": 2,
                    "attributes": {
                        "POSITION": 0,
                        "TEXCOORD_0": 1
                    }
                }
            ]
        }
    ],
    "nodes": [
        {
            "name": "world",
            "children": [
                1
            ]
        },
        {
            "name": "geometry_0",
            "mesh": 0
        }
    ],
    "samplers": [
        {}
    ],
    "scenes": [
        {
            "nodes": [
                0
            ]
        }
    ],
    "textures": [
        {
            "source": 0,
            "sampler": 0
        }
    ],
    "scene": 0
}
